HIERARCHY
ROOT SpineBase
{
  OFFSET 0.000000 0.000000 0.000000
  CHANNELS 6 Xposition Yposition Zposition Zrotation Xrotation Yrotation
  JOINT SpineMid
  {
    OFFSET 0.000000 29.536430 0.000000
    CHANNELS 3 Zrotation Xrotation Yrotation
    JOINT SpineShoulder
    {
      OFFSET 0.055293 22.034414 -0.738168
      CHANNELS 3 Zrotation Xrotation Yrotation
      JOINT Neck
      {
        OFFSET 0.018512 7.331149 -0.571429
        CHANNELS 3 Zrotation Xrotation Yrotation
        JOINT Head
        {
          OFFSET 5.217383 12.357580 2.456630
          CHANNELS 3 Zrotation Xrotation Yrotation
          End Site
          {
            OFFSET 0 0 0
          }
        }
      }
      JOINT ShoulderLeft
      {
        OFFSET -8.136342 -2.905944 -13.024935
        CHANNELS 3 Zrotation Xrotation Yrotation
        JOINT ElbowLeft
        {
          OFFSET -5.317452 -23.206218 -8.073537
          CHANNELS 3 Zrotation Xrotation Yrotation
          JOINT WristLeft
          {
            OFFSET 1.466902 -24.428744 -1.213464
            CHANNELS 3 Zrotation Xrotation Yrotation
            JOINT HandLeft
            {
              OFFSET 0.880988 -6.583678 0.639518
              CHANNELS 3 Zrotation Xrotation Yrotation
              JOINT HandTipLeft
              {
                OFFSET 0.880250 -7.454801 0.863919
                CHANNELS 3 Zrotation Xrotation Yrotation
                End Site
                {
                  OFFSET 0 0 0
                }
              }
              JOINT ThumbLeft
              {
                OFFSET 2.860558 2.397470 0.269098
                CHANNELS 3 Zrotation Xrotation Yrotation
                End Site
                {
                  OFFSET 0 0 0
                }
              }
            }
          }
        }
      }
      JOINT ShoulderRight
      {
        OFFSET 9.664409 -6.289529 10.006379
        CHANNELS 3 Zrotation Xrotation Yrotation
        JOINT ElbowRight
        {
          OFFSET 9.196520 -15.237994 -7.778970
          CHANNELS 3 Zrotation Xrotation Yrotation
          JOINT WristRight
          {
            OFFSET -2.568170 -18.537108 -4.520429
            CHANNELS 3 Zrotation Xrotation Yrotation
            JOINT HandRight
            {
              OFFSET -0.517406 -1.276306 0.789703
              CHANNELS 3 Zrotation Xrotation Yrotation
              JOINT HandTipRight
              {
                OFFSET 1.097715 -3.119534 0.212810
                CHANNELS 3 Zrotation Xrotation Yrotation
                End Site
                {
                  OFFSET 0 0 0
                }
              }
              JOINT ThumbRight
              {
                OFFSET -4.639942 -0.926412 0.382292
                CHANNELS 3 Zrotation Xrotation Yrotation
                End Site
                {
                  OFFSET 0 0 0
                }
              }
            }
          }
        }
      }
    }
  }
  JOINT HipLeft
  {
    OFFSET -4.108243 2.264393 -8.140189
    CHANNELS 3 Zrotation Xrotation Yrotation
    JOINT KneeLeft
    {
      OFFSET -8.763468 -26.837777 -6.507734
      CHANNELS 3 Zrotation Xrotation Yrotation
      JOINT AnkleLeft
      {
        OFFSET -6.771327 -38.307751 7.137034
        CHANNELS 3 Zrotation Xrotation Yrotation
        JOINT FootLeft
        {
          OFFSET 7.690433 -3.447580 -9.562618
          CHANNELS 3 Zrotation Xrotation Yrotation
          End Site
          {
            OFFSET 0 0 0
          }
        }
      }
    }
  }
  JOINT HipRight
  {
    OFFSET 4.342843 0.173313 1.428374
    CHANNELS 3 Zrotation Xrotation Yrotation
    JOINT KneeRight
    {
      OFFSET -1.715119 -33.002897 0.336523
      CHANNELS 3 Zrotation Xrotation Yrotation
      JOINT AnkleRight
      {
        OFFSET -7.532525 -32.745537 5.477021
        CHANNELS 3 Zrotation Xrotation Yrotation
        JOINT FootRight
        {
          OFFSET 7.550627 -3.482340 -9.589580
          CHANNELS 3 Zrotation Xrotation Yrotation
          End Site
          {
            OFFSET 0 0 0
          }
        }
      }
    }
  }
}
MOTION
Frames: 5
Frame Time: 0.033333
-3.648883 73.082090 328.997870 -0.113000 0.009371 -52.806454 0.075774 0.084351 52.806407 -0.000000 0.000000 0.000000 -5.203611 3.907778 -0.426619 0.000000 0.000000 0.000000 3.722217 -1.777195 -0.841208 0.483123 0.133090 0.578909 -2.218280 0.109207 0.325785 1.154045 16.069012 1.661862 0.000000 0.000000 0.000000 0.000000 0.000000 0.000000 -55.993902 34.755235 73.518988 -139.979658 -45.083670 -179.426625 107.102312 56.315446 -109.467395 -57.491902 -25.112537 -27.995019 0.000000 0.000000 0.000000 0.000000 0.000000 0.000000 7.931917 -3.149070 55.230324 -4.840535 8.916080 -2.277514 3.213283 -1.452168 -2.151397 0.000000 0.000000 0.000000 8.881603 -4.679223 53.690926 -7.417287 12.550616 -0.822785 -2.166963 -12.451994 3.215872 0.000000 0.000000 0.000000
-3.715827 73.077309 328.832885 0.102706 -0.382956 -52.977300 0.461182 -0.102939 52.989818 0.022708 -0.049404 0.015127 -5.076183 3.781396 -0.115809 0.000000 0.000000 0.000000 3.250077 -1.096025 -0.822518 0.883833 0.475713 0.460774 -2.480556 -0.362450 0.295014 1.365040 16.474651 1.692621 0.000000 0.000000 0.000000 0.000000 0.000000 0.000000 -59.270862 36.262921 78.129755 -144.235064 -36.159571 177.881861 92.968332 49.754390 -74.166165 -77.597991 30.719095 -25.540503 0.000000 0.000000 0.000000 0.000000 0.000000 0.000000 7.567378 -3.148430 55.443030 -4.724888 8.797834 -2.278310 3.115434 -1.177873 -2.064185 0.000000 0.000000 0.000000 7.340030 -4.630228 53.758274 -6.433600 10.960768 -0.802609 0.784411 -8.268224 0.982150 0.000000 0.000000 0.000000
-3.832258 73.150113 328.580056 0.382040 -0.666239 -53.310748 0.434295 -0.020321 53.336349 0.046954 -0.031475 0.031276 -4.845627 2.801920 0.183199 0.000000 0.000000 0.000000 2.678109 -0.925312 -0.774273 1.690433 0.890006 0.336419 -4.436885 -0.708482 0.182725 3.490920 18.755694 1.968443 0.000000 0.000000 0.000000 0.000000 0.000000 0.000000 -59.292360 33.840075 76.194247 -148.705521 -33.789808 168.699784 71.306754 47.791753 -36.605146 -148.856714 72.477389 54.345994 0.000000 0.000000 0.000000 0.000000 0.000000 0.000000 7.272901 -3.248523 55.838561 -4.531430 8.583197 -2.261972 2.954419 -0.784205 -2.032249 0.000000 0.000000 0.000000 6.229147 -4.502609 54.022349 -5.882143 9.647390 -0.745065 4.675780 -3.544619 -1.881877 0.000000 0.000000 0.000000
-3.987575 73.252707 328.247686 0.707146 -0.796392 -53.545060 0.384882 0.061327 53.585199 0.061717 -0.011311 0.048119 -4.708268 1.724390 0.466731 0.000000 0.000000 0.000000 2.073167 -0.735958 -0.762326 1.532987 0.983227 0.332426 -4.716093 -0.752583 0.099914 5.478676 18.762837 1.942065 0.000000 0.000000 0.000000 0.000000 0.000000 0.000000 -53.551382 29.726035 65.754974 -157.668406 -39.448912 150.296162 38.643509 49.267577 -0.291872 54.232548 26.689325 -80.209469 0.000000 0.000000 0.000000 0.000000 0.000000 0.000000 7.087472 -3.486687 56.154454 -4.300369 8.342952 -2.237010 2.760154 -0.330989 -2.005570 0.000000 0.000000 0.000000 5.699602 -4.420399 54.237625 -5.798204 8.797831 -0.664519 2.971991 -4.821503 -1.685824 0.000000 0.000000 0.000000
-4.169298 73.401866 327.880608 1.042979 -0.823281 -53.777701 0.374868 0.118170 53.832841 0.079236 -0.013616 0.066040 -4.539724 0.817765 0.667936 0.000000 0.000000 0.000000 1.374337 -0.562025 -0.726472 1.101158 0.887828 0.326981 -4.204537 -0.170681 0.118188 5.148528 19.177748 2.054409 0.000000 0.000000 0.000000 0.000000 0.000000 0.000000 -43.288998 27.554082 51.821264 -177.980569 -43.993921 119.393299 4.853002 44.083745 35.853027 34.374946 -27.820349 -52.557591 0.000000 0.000000 0.000000 0.000000 0.000000 0.000000 7.027562 -3.753547 56.466211 -4.120927 8.121623 -2.196066 2.569739 0.103418 -2.047397 0.000000 0.000000 0.000000 5.717114 -4.238539 54.485203 -6.236897 8.410718 -0.580620 -0.180450 -7.613908 0.230923 0.000000 0.000000 0.000000
